<?xml version="1.0" encoding="UTF-8" standalone="no"?>
<svg
   xmlns:dc="http://purl.org/dc/elements/1.1/"
   xmlns:cc="http://creativecommons.org/ns#"
   xmlns:rdf="http://www.w3.org/1999/02/22-rdf-syntax-ns#"
   xmlns:svg="http://www.w3.org/2000/svg"
   xmlns="http://www.w3.org/2000/svg"
   viewBox="0 0 354.32501 354.32501"
   height="354.32501"
   width="354.32501"
   xml:space="preserve"
   version="1.1"
   id="svg2"><metadata
     id="metadata8"><rdf:RDF><cc:Work
         rdf:about=""><dc:format>image/svg+xml</dc:format><dc:type
           rdf:resource="http://purl.org/dc/dcmitype/StillImage" /><dc:title></dc:title></cc:Work></rdf:RDF></metadata><defs
     id="defs6"><clipPath
       id="clipPath16"
       clipPathUnits="userSpaceOnUse"><path
         id="path18"
         d="m 0,283.46 283.46,0 L 283.46,0 0,0 0,283.46 Z" /></clipPath></defs><g
     transform="matrix(1.25,0,0,-1.25,0,354.325)"
     id="g10"><g
       id="g12"><g
         clip-path="url(#clipPath16)"
         id="g14"><g
           transform="translate(276.48,138.1165)"
           id="g20"><path
             id="path22"
             style="fill:#ff237a;fill-opacity:1;fill-rule:nonzero;stroke:none"
             d="m 0,0 c 0,-74.42 -60.33,-134.75 -134.75,-134.75 -74.42,0 -134.75,60.33 -134.75,134.75 0,74.42 60.33,134.75 134.75,134.75 C -60.33,134.75 0,74.42 0,0" /></g><g
           transform="translate(72.5363,196.8465)"
           id="g24"><path
             id="path26"
             style="fill:none;stroke:#ffffff;stroke-width:12;stroke-linecap:butt;stroke-linejoin:miter;stroke-miterlimit:10;stroke-dasharray:none;stroke-opacity:1"
             d="m 0,0 c 2.645,7.472 4.648,10.258 16.981,12.925 12.334,2.667 92.315,-0.075 104.667,-2 10.852,0.575 17,-9 17,-19 0,-10 -2.333,-103 -2.333,-103 0,0 0.333,-18 -15.334,-19.667 -15.666,-1.666 -107.333,1.667 -107.333,1.667 0,0 -17.632,3.347 -16.39,20.687 C -1.502,-91.081 -1.04,-2.937 0,0 Z" /></g><g
           transform="translate(173.6289,134.503)"
           id="g28"><path
             id="path30"
             style="fill:none;stroke:#ffffff;stroke-width:12;stroke-linecap:butt;stroke-linejoin:miter;stroke-miterlimit:10;stroke-dasharray:none;stroke-opacity:1"
             d="m 0,0 c 0,-18.409 -14.924,-33.333 -33.333,-33.333 -18.41,0 -33.334,14.924 -33.334,33.333 0,18.409 14.924,33.333 33.334,33.333 C -14.924,33.333 0,18.409 0,0 Z" /></g><g
           transform="translate(190.4507,181.1747)"
           id="g32"><path
             id="path34"
             style="fill:#ffffff;fill-opacity:1;fill-rule:nonzero;stroke:none"
             d="m 0,0 c 0,-4.789 -3.882,-8.672 -8.672,-8.672 -4.789,0 -8.672,3.883 -8.672,8.672 0,4.789 3.883,8.672 8.672,8.672 C -3.882,8.672 0,4.789 0,0" /></g></g></g></g></svg>